<?xml version="1.0" encoding="utf-8"?>
<!-- Generator: Adobe Illustrator 16.0.0, SVG Export Plug-In . SVG Version: 6.00 Build 0)  -->
<!DOCTYPE svg PUBLIC "-//W3C//DTD SVG 1.1//EN" "http://www.w3.org/Graphics/SVG/1.1/DTD/svg11.dtd">
<svg version="1.1" id="Layer_1" xmlns="http://www.w3.org/2000/svg" xmlns:xlink="http://www.w3.org/1999/xlink" x="0px" y="0px"
	 width="536.665px" height="534.646px" viewBox="0 0 536.665 534.646" enable-background="new 0 0 536.665 534.646"
	 xml:space="preserve">
<g>
	<ellipse opacity="0.5" fill="#E2E2E2" cx="269.703" cy="517.179" rx="232.801" ry="14.661"/>
	<g>
		<g>
			<path fill="none" stroke="#EDC310" stroke-width="0.9732" stroke-miterlimit="10" d="M200.478,281.634
				c-7.582,26.526-26.64,49.524-54.012,61.146c-48.097,20.422-103.643-2.011-124.065-50.108
				c-13.243-31.187-8.467-65.506,9.644-91.351"/>
			<circle fill="#EDC310" cx="31.981" cy="200.628" r="5.478"/>
			<circle fill="#EDC310" cx="200.168" cy="280.907" r="5.478"/>
		</g>
		<g>
			<polygon fill="#CB85AE" points="35.145,171.152 63.196,141.224 42.215,172.4 62.886,177.283 63.196,141.224 18.137,168.739 			
				"/>
			<polygon fill="#C2536D" points="42.215,172.4 42.823,184.479 35.145,171.152 63.196,141.224 			"/>
			<polygon fill="#BD546C" points="42.215,172.4 42.771,184.499 50.326,174.316 			"/>
		</g>
	</g>
	<g>
		<circle fill="#CB85AE" cx="165.817" cy="44.909" r="10.611"/>
		<circle fill="#CB85AE" cx="126.232" cy="34.297" r="25.64"/>
		<path opacity="0.2" fill="#99D0E2" d="M222.927,68.474c-17.188,0-33.037,5.71-45.77,15.328
			c-9.941-10.669-24.109-17.351-39.844-17.351c-30.076,0-54.458,24.382-54.458,54.458c0,19.815,10.587,37.155,26.41,46.684
			c-3.175,5.079-5.039,11.06-5.039,17.49c0,18.273,14.813,33.086,33.086,33.086c14.016,0,25.968-8.728,30.791-21.035
			c13.835,14.405,33.274,23.386,54.824,23.386c41.986,0,76.024-34.037,76.024-76.023C298.951,102.511,264.913,68.474,222.927,68.474
			z"/>
		
			<circle fill="none" stroke="#493B98" stroke-width="0.7162" stroke-miterlimit="10" stroke-dasharray="3.5812" cx="222.67" cy="140.929" r="90.397"/>
		<circle fill="#99D0E2" cx="222.671" cy="138.088" r="51.49"/>
	</g>
	<g>
		<circle opacity="0.2" fill="#99D0E2" cx="431.746" cy="198.888" r="70.758"/>
		<g>
			<path fill="none" stroke="#EDC310" stroke-width="0.9732" stroke-miterlimit="10" d="M439.249,106.346
				c27.523,1.871,53.995,15.708,71.078,40.047c30.02,42.771,19.684,101.776-23.088,131.794
				c-27.732,19.467-62.293,21.962-91.351,9.651"/>
			<circle fill="#EDC310" cx="438.602" cy="106.8" r="5.478"/>
		</g>
		<g>
			<polygon fill="#493B98" points="420.955,73.593 374.335,98.371 405.528,116.459 411.85,96.181 374.335,98.371 414.373,89.46 			
				"/>
			<polygon fill="#818BC1" points="374.335,98.371 414.373,89.46 421.938,102.854 411.85,96.181 			"/>
			<polygon fill="#818BC1" points="409.368,104.139 421.98,102.819 411.85,96.181 			"/>
		</g>
		<circle fill="#493B98" cx="426.745" cy="198.139" r="41.583"/>
		<circle fill="#493B98" cx="381.536" cy="142.519" r="16.734"/>
		<circle fill="#493B98" cx="375.115" cy="172.027" r="6.421"/>
	</g>
	<g>
		<path fill="#EDC310" d="M270.858,197.179c0-27.466-23.698-49.73-52.936-49.73c-29.235,0-52.934,22.264-52.934,49.73
			c0,17.577,9.713,33.012,24.365,41.857l14.023,6.095l14.545,25.197l14.547-25.197l14.023-6.095
			C261.145,230.19,270.858,214.756,270.858,197.179z"/>
		<path fill="#FFFFFF" d="M212.583,213.937c-0.774,0-1.548-0.34-2.137-1.02l-10.682-12.315c-1.18-1.361-1.18-3.565,0-4.926
			s3.091-1.36,4.271,0l8.548,9.853l19.229-22.168c1.18-1.359,3.091-1.36,4.271,0c1.18,1.361,1.18,3.566,0,4.927l-21.364,24.63
			C214.128,213.597,213.354,213.937,212.583,213.937z"/>
	</g>
	<g>
		<g>
			<g>
				<path fill="#3C3795" d="M110.939,366.464c17.786,9.669,34.793,20.771,50.797,33.168c6.995,5.418,12.774,11.969,12.513,21.393
					c-0.188,6.695-1.541,14.332-3.008,21.296c-1.655,7.837-3.353,15.665-5.093,23.484c-3.41,15.313-6.988,30.584-10.732,45.817
					l-0.558,0.224c-3.013-0.05-6.017-0.653-8.816-1.767l-0.725-0.076c-1.852-0.192,0.599-38.661,0.907-42.484
					c1.121-13.954,2.745-27.998,5.428-41.745c0,0-45.732-11.604-64.796-25.895c-8.438-6.325-10.974-15.355-9.768-25.561
					C88.404,372.087,99.68,369.091,110.939,366.464z"/>
			</g>
			<g>
				<path fill="#BD546C" d="M155.415,511.623c2.422,1.192,2.593,1.684,4.034,3.303c0.848,0.95,1.522,2.028,2.123,3.151
					c0.688,1.286-0.23,2.797-1.688,2.799c-3.445,0-6.926-1.467-10.15-2.913c-1.736-0.776-3.535-1.605-4.734-3.082
					s-1.579-3.809-0.323-5.238L155.415,511.623z"/>
			</g>
		</g>
		<path fill="#99D0E2" d="M77.888,414.869V307.009H62.351v107.859v4.789v8.585v90.684h9.466v-31.614h51.478v31.614h9.467v-90.684
			v-13.374H77.888z M123.295,477.138H71.817v-48.896h51.478V477.138z"/>
		<g>
			<g>
				<path fill="#493B98" d="M107.249,380.851c19.617,5,38.83,11.584,57.391,19.667c8.113,3.532,15.321,8.462,17.385,17.66
					c1.465,6.539,2.03,14.27,2.317,21.383c0.323,8.004,0.603,16.011,0.836,24.017c0.456,15.678,0.743,31.363,0.857,47.051
					l-0.487,0.354c-2.932,0.69-5.99,0.845-8.977,0.453l-0.724,0.104c-1.84,0.269-8.918-37.624-9.56-41.403
					c-2.343-13.803-4.219-27.815-4.998-41.799c0,0-47.183-0.012-69.172-9.177c-9.735-4.06-14.413-12.189-15.749-22.375
					C86.787,391.839,96.982,386.163,107.249,380.851z"/>
			</g>
			<g>
				<path fill="#BD546C" d="M186.035,510.628c2.64,0.56,2.928,0.992,4.723,2.208c1.054,0.714,1.973,1.593,2.833,2.535
					c0.98,1.076,0.463,2.767-0.95,3.125c-3.341,0.848-7.076,0.28-10.554-0.328c-1.874-0.327-3.823-0.686-5.35-1.823
					c-1.524-1.137-2.464-3.303-1.6-4.998L186.035,510.628z"/>
			</g>
		</g>
		<g>
			<g>
				<path fill="#EFD0B8" d="M130.855,348.318c0.631,5.026,11.568,26.391,15.647,26.771c9.742,0.907,19.204-1.612,28.176-5.179
					c8.545-3.399,17.031-6.949,25.47-10.608c6.871-2.979,13.823-5.851,20.495-9.265c0.497-0.252,1.028-0.553,1.228-1.073
					c1.192-3.146-15.141-0.876-16.77-0.707c-9.215,0.939-18.358,2.578-27.314,4.938c-2.253,0.594-22.917,5.634-22.696,8.146
					c-0.002-0.033-3.528-18.556-6.342-25.216L130.855,348.318z"/>
			</g>
			<g>
				<path fill="#BD546C" d="M121.398,352.093c4.264,1.17,33.616-18.435,34.397-23.673l-0.361-0.387
					c-7.674-8.206-9.542-19.69-15.027-29.181c-4.981-8.621-16.905-13.743-24.076-4.545c-6.271,8.045-6.242,19.154-5.079,28.797
					c1.061,8.809,2.237,21.86,9.222,28.157L121.398,352.093z"/>
			</g>
		</g>
		<g>
			<path fill="#CB85AE" d="M133.22,296.733c6.738,10.922,9.628,88.592,5.706,94.886l-15.63,5.136
				c-19.13,5.945-35.437,1.596-55.122-2.12l0.355-0.542c6.878-15.554,10.72-32.243,15.528-48.558
				c4.811-16.316,10.779-32.64,21.215-46.074c1.285-1.654,2.804-3.364,4.865-3.756L133.22,296.733z"/>
		</g>
		<g>
			<path fill="#E2E2E2" d="M132.548,390.847c-19.13,5.942-35.437,1.593-55.121-2.123l0.354-0.539
				c6.878-15.557,10.72-32.246,15.531-48.56c4.547-15.424,10.179-30.829,19.593-43.818l-2.327-0.103
				c-2.059,0.392-3.578,2.102-4.865,3.756C95.28,312.895,89.311,329.218,84.5,345.535c-4.808,16.314-8.652,33.004-15.528,48.558
				l-0.356,0.542c19.686,3.716,35.993,8.065,55.123,2.12l15.63-5.136c0.349-0.561,0.641-1.71,0.886-3.305L132.548,390.847z"/>
		</g>
		<polygon fill="#99D0E2" points="141.271,357.936 141.271,377.024 141.271,520.824 153.523,520.824 153.523,377.024 
			347.83,377.024 347.83,520.824 360.081,520.824 360.081,377.024 360.081,357.936 		"/>
		<polygon fill="#493B98" points="217.858,306.769 206.039,353.207 157.949,353.207 157.949,357.936 211.063,357.936 
			223.768,306.769 		"/>
		<g>
			<g>
				<path fill="#EFD0B8" d="M131.116,264.719c-1.277,3.982-2.521,8.479-0.586,12.186c0.665,1.277,1.667,2.348,2.709,3.341
					l0.572,0.042c3.559,3.336,8.113,5.599,12.923,6.418c2.869,0.489,6.085,0.385,8.332-1.462c1.206-0.99,2.001-2.38,2.751-3.747
					c4.611-8.407,8.443-17.24,11.435-26.348l-0.041-0.51c0.826-3.999-1.306-8.061-4.086-11.048
					c-2.714-2.915-6.173-5.22-10.048-6.136c-3.875-0.914-8.175-0.336-11.423,1.964c-3.217,2.276-5.124,5.924-6.914,9.432
					c-1.109,2.173-2.237,4.413-2.453,6.844l-0.211,0.456c-1.13-1.624-3.436-2.334-5.259-1.567c-1.824,0.767-2.933,2.968-2.403,4.872
					c0.601,2.156,2.825,3.391,4.903,4.224L131.116,264.719z"/>
			</g>
			<g>
				<path fill="#EFD0B8" d="M132.272,261.999c-6.232,11.171-14.166,23.798-21.986,33.922c0,0-0.124,0.212-0.126,0.214
					c-0.406,0.703,4.948,2.816,5.615,3.089c5.736,2.337,11.988,2.4,16.901-1.707c0.256-5.229,0.942-10.879,4.563-14.659
					L132.272,261.999z"/>
			</g>
			<g>
				<path fill="#2A3F59" d="M158.948,259.47c-0.394,1.197-1.062,3.013-2.322,3.483c-0.674,0.252-1.317-0.05-1.643-0.672
					c-0.705-1.353,0.406-3.307,1.304-4.342C157.448,256.604,159.499,257.796,158.948,259.47L158.948,259.47z"/>
			</g>
			<g>
				<path fill="#2A3F59" d="M166.292,262.027c-0.071,1.69-0.572,3.353-1.071,4.96c-0.491,1.591-0.938,3.3-1.94,4.646
					c-0.261,0.35-0.859,0.111-0.798-0.325c0.221-1.536,0.934-2.979,1.403-4.459c0.53-1.674,0.867-3.421,1.513-5.053
					C165.601,261.289,166.311,261.521,166.292,262.027L166.292,262.027z"/>
			</g>
			<g>
				<path fill="#2A3F59" d="M163.27,276.494c-3.908,2.51-10.416-0.556-9.689-6.166c0.05-0.38,0.536-0.511,0.607-0.168
					c0.85,4.212,4.846,7.662,8.849,5.457C163.545,275.335,163.766,276.175,163.27,276.494L163.27,276.494z"/>
			</g>
			<circle fill="#EFD0B8" cx="145.419" cy="266.84" r="5.899"/>
			<g>
				<path fill="#EFD0B8" d="M133.868,257.701c-1.733-0.496-4.682,0.71-4.706,2.79c-0.005,0.394,0.499,0.598,0.774,0.32
					c0.518-0.524,0.786-1.192,1.401-1.645c0.731-0.537,1.543-0.712,2.436-0.76C134.169,258.385,134.271,257.815,133.868,257.701
					L133.868,257.701z"/>
			</g>
			<g>
				<path fill="#EFD0B8" d="M131.275,259.049c0.449,0.798,0.577,1.472,0.641,2.367c0.042,0.58,0.835,0.57,0.893,0
					c0.107-1.047-0.297-2.016-0.943-2.823C131.593,258.251,131.071,258.688,131.275,259.049L131.275,259.049z"/>
			</g>
			<g>
				<path fill="#493B98" d="M177.853,246.838c-3.25-3.677-5.366-8.314-8.989-11.62c-5.586-5.096-13.816-6.156-21.335-5.39
					c-5.374,0.546-11.457,2.569-13.296,7.646l-0.584,0.337c-1.994-0.088-3.775,1.28-5.024,2.837
					c-2.992,3.729-3.716,11.897-2.185,16.714c-0.213-0.669,1.347-2.22,1.816-2.481c1.23-0.681,2.598-0.748,3.861-0.268
					c0.522,0.199,0.993,0.513,1.377,0.919c0.245,0.259,0.544,1.113,0.791,1.253c3.986,2.263,8.911,2.705,13.355,1.517
					c4.742-1.265,8.925-4.236,12.126-7.956l0.484-0.349c1.042,2.334,2.12,4.725,3.915,6.551c3.925,3.991,10.789,7.322,16.514,6.575
					c2.249-0.294,4.412-1.724,5.216-3.847c-1.484-0.814-2.858-1.823-4.082-2.994l-0.434-0.99c3.324,0.494,6.866-0.94,8.911-3.609
					l0.57-0.688C186.493,253.232,181.101,250.516,177.853,246.838z"/>
			</g>
			<g>
				<path fill="#493B98" d="M145.329,234.037c0.133-2.035-1.968-3.426-3.83-4.262c-3.507-1.578-10.749-1.169-10.749-1.169
					c-1.394,2.614-4.238,4.392-7.201,4.496c1.111-1.48,1.828-3.252,2.061-5.086l0.055-0.17c-4.445,4.271-9.616,8.024-15.587,9.552
					c-5.969,1.528-12.843,0.501-17.297-3.757c-2.828-2.702-4.452-6.405-5.8-10.076c1.384,0.158,2.804-0.002,4.12-0.467l-0.561-0.703
					c-0.154-0.193-1.586-0.362-1.928-0.531c-2.161-1.072-3.944-5.162-2.918-7.41c1.109,0.235,2.486,1.193,3.673,0.74l0.784-0.301
					c-4.15-4.841-5.221-12.114-2.643-17.946l0.442,0.611c3.051,10.572,13.854,18.356,24.848,17.903
					c6.458-0.266,12.748-3.045,19.18-2.401c4.815,0.484,9.398,2.978,12.418,6.759s4.438,8.8,3.846,13.604L145.329,234.037z"/>
			</g>
			<path fill="#E2E2E2" d="M137.24,282.857c0,0-5.039-2.044-6.01-7.03l1.532,20.208C132.762,296.035,132.939,286.956,137.24,282.857
				z"/>
			<g>
				<path fill="#CECECE" d="M134.668,257.501c2.84-2.719,5.583-7.156,5.487-11.221c-0.012-0.479-0.617-0.503-0.784-0.106
					c-0.774,1.856-1.18,3.808-2.07,5.633c-0.883,1.814-2.044,3.455-3.286,5.041C133.657,257.304,134.227,257.924,134.668,257.501
					L134.668,257.501z"/>
			</g>
			<g>
				<path fill="#CECECE" d="M135.357,256.454c1.317-3.514,1.812-7.667,0.714-11.31c-0.13-0.429-0.812-0.363-0.8,0.108
					c0.102,3.78,0.078,7.24-0.841,10.948C134.281,256.808,135.143,257.024,135.357,256.454L135.357,256.454z"/>
			</g>
			<g>
				<path fill="#CECECE" d="M134.478,256.141c0.017-2.6-0.325-5.328-1.443-7.699c-0.218-0.463-0.883-0.122-0.786,0.332
					c0.52,2.469,1.156,4.844,1.411,7.368C133.711,256.656,134.476,256.68,134.478,256.141L134.478,256.141z"/>
			</g>
			<g>
				<path fill="#CECECE" d="M160.204,249.814c0.181-2.372,1.377-4.11,2.778-5.932c0.271-0.352-0.247-0.822-0.594-0.596
					c-2.144,1.396-3.063,4.079-3.118,6.528C159.257,250.421,160.159,250.407,160.204,249.814L160.204,249.814z"/>
			</g>
			<g>
				<path fill="#CECECE" d="M159.404,248.983c-0.551-1.638-0.157-2.976,0.401-4.529c0.109-0.304-0.351-0.585-0.558-0.326
					c-1.133,1.419-1.111,3.399-0.544,5.048C158.855,249.615,159.554,249.429,159.404,248.983L159.404,248.983z"/>
			</g>
			<g>
				<path fill="#CECECE" d="M181.265,254.887c-2.042-0.674-3.063-2.04-4.257-3.711c-0.328-0.463-1.038-0.19-0.918,0.387
					c0.467,2.272,2.745,3.899,4.848,4.511C181.702,256.297,182.013,255.134,181.265,254.887L181.265,254.887z"/>
			</g>
			<g>
				<path fill="#CECECE" d="M180.807,255.089c-1.745,0.39-3.407,0.052-4.951-0.826c-0.701-0.399-1.289,0.634-0.627,1.073
					c1.762,1.168,3.866,1.429,5.898,0.919C181.887,256.067,181.564,254.918,180.807,255.089L180.807,255.089z"/>
			</g>
			<g>
				<path fill="#CECECE" d="M141.782,235.795c5.164-5.561,13.303-3.007,19.08-0.198c0.325,0.159,0.717-0.26,0.411-0.532
					c-5.095-4.555-15.354-5.379-20.058,0.163C140.882,235.617,141.426,236.18,141.782,235.795L141.782,235.795z"/>
			</g>
			<g>
				<path fill="#CECECE" d="M91.533,223.98c2.939,0.832,6.074,1.236,9.073,0.472c0.422-0.106,0.347-0.806-0.104-0.774
					c-2.994,0.219-5.82,0.315-8.754-0.472C91.249,223.071,91.037,223.84,91.533,223.98L91.533,223.98z"/>
			</g>
			<g>
				<path fill="#CECECE" d="M91.695,223.358c2.892,0.5,5.934,0.623,8.802-0.106c0.58-0.147,0.477-1.131-0.147-1.071
					c-2.873,0.277-5.639,0.514-8.531,0.254C91.298,222.39,91.172,223.268,91.695,223.358L91.695,223.358z"/>
			</g>
			<g>
				<path fill="#CECECE" d="M89.781,215.704c1.99,0.648,4.212,0.983,6.287,0.576c0.551-0.109,0.406-0.951-0.13-0.958
					c-2.021-0.031-3.937-0.017-5.936-0.418C89.479,214.799,89.271,215.537,89.781,215.704L89.781,215.704z"/>
			</g>
			<g>
				<path fill="#CECECE" d="M91.084,215.307c1.676,0.01,3.666-0.178,5.05-1.211c0.371-0.278,0.164-0.875-0.325-0.767
					c-1.619,0.355-3.03,0.957-4.725,1.029C90.477,214.383,90.472,215.303,91.084,215.307L91.084,215.307z"/>
			</g>
			<g>
				<path fill="#CECECE" d="M127.69,217.288c2.978-1.244,7.356,0.326,10.188,1.659c3.578,1.684,5.435,4.41,6.774,8.035
					c0.19,0.511,0.9,0.31,0.81-0.223c-0.667-3.951-3.523-7.122-7.099-8.781c-3.222-1.496-7.586-3.002-11.005-1.48
					C126.914,216.693,127.236,217.477,127.69,217.288L127.69,217.288z"/>
			</g>
			<g>
				<path fill="#CECECE" d="M144.757,230.298c-1.016-1.427-2.12-2.939-3.59-3.927c-0.316-0.211-0.746,0.212-0.53,0.529
					c0.974,1.426,2.277,2.643,3.383,3.967C144.358,231.273,145.068,230.734,144.757,230.298L144.757,230.298z"/>
			</g>
			<g>
				<path fill="#CECECE" d="M145.022,229.849c-0.382-1.513-0.755-3.207-1.586-4.544c-0.256-0.415-0.89-0.144-0.781,0.33
					c0.349,1.505,1.085,2.963,1.572,4.434C144.394,230.569,145.153,230.367,145.022,229.849L145.022,229.849z"/>
			</g>
			<g>
				<path fill="#CECECE" d="M125.71,228.245c0.838-1.42,1.769-3.229,1.667-4.919c-0.026-0.404-0.65-0.677-0.845-0.229
					c-0.674,1.538-0.902,3.274-1.531,4.849C124.833,228.362,125.494,228.614,125.71,228.245L125.71,228.245z"/>
			</g>
			<g>
				<path fill="#CECECE" d="M125.885,227.012c0.15-1.473,0.233-3.105-0.275-4.521c-0.142-0.396-0.791-0.366-0.774,0.104
					c0.06,1.484,0.337,2.919,0.283,4.416C125.102,227.513,125.838,227.493,125.885,227.012L125.885,227.012z"/>
			</g>
		</g>
		<g>
			<g>
				<path fill="#EFD0B8" d="M113.985,351.656c0.631,5.026,11.568,26.392,15.645,26.771c9.744,0.906,19.204-1.612,28.176-5.179
					c8.548-3.397,17.034-6.95,25.47-10.608c6.871-2.98,13.826-5.851,20.495-9.263c0.497-0.254,1.031-0.556,1.228-1.075
					c1.194-3.146-15.139-0.877-16.77-0.708c-9.212,0.94-18.356,2.579-27.312,4.938c-2.253,0.594-22.919,5.635-22.699,8.146
					c-0.002-0.033-3.526-18.556-6.339-25.216L113.985,351.656z"/>
			</g>
			<g>
				<path fill="#BD546C" d="M104.528,355.431c4.262,1.171,33.613-18.435,34.397-23.672l-0.363-0.388
					c-7.674-8.205-9.54-19.69-15.025-29.181c-4.981-8.621-16.908-13.742-24.078-4.544c-6.268,8.044-6.24,19.153-5.079,28.796
					c1.063,8.809,2.236,21.86,9.224,28.157L104.528,355.431z"/>
			</g>
		</g>
	</g>
	<g>
		<g>
			<path fill="#88BECD" d="M432.68,443.303c-1.252-2.906-3.246-5.423-5.217-7.899c-4.127-5.188-8.253-10.376-12.382-15.563
				l0.185-1.192c5.245-11.342,9.191-23.285,11.734-35.52l-0.615-40.993l-26.175,13.336c-3.592,13.848-7.187,27.694-10.779,41.542
				c-1.408,5.423-2.828,10.995-2.215,16.568c0.724,6.598,4.221,12.531,7.8,18.123c11.8,18.444,27.478,38.097,42.583,53.947
				L432.68,443.303z"/>
		</g>
		<g>
			<path fill="#99D0E2" d="M418.709,346.774c6.928,53.312,16.273,109.989,18.881,163.688l14.54,0.57
				c5.972-61.313,5.808-123.219-0.486-184.499L418.709,346.774z"/>
		</g>
		<g>
			<path fill="#CECECE" d="M450.463,361.222c0.632,46.884-4.891,93.815-2.246,140.656c0.05,0.848,1.375,0.854,1.327,0
				c-2.616-46.915,4.692-93.803,1.743-140.656C451.254,360.698,450.456,360.686,450.463,361.222L450.463,361.222z"/>
		</g>
		<g>
			<path fill="#493B98" d="M452.797,511.241c-0.071,0.928-0.14,1.859-0.211,2.787c-0.161,2.166-0.494,4.635-2.299,5.839
				c-0.971,0.646-2.184,0.781-3.348,0.878c-7.51,0.637-15.086,0.509-22.57-0.377l-0.1-0.513c0.805-1.186,1.607-2.37,2.412-3.557
				c0.561-0.827,1.126-1.66,1.823-2.375c2.171-2.225,5.35-3.067,8.365-3.82L452.797,511.241z"/>
		</g>
		<g>
			<g>
				<path fill="#EFD0B8" d="M339.999,349.801c-3.938,0.877-8.429,3.021-11.867,4.067c-0.738,0.226-1.603,0.584-1.737,1.347
					c-0.069,0.398,0.095,0.805,0.317,1.142c1.147,1.748,3.545,2.04,5.633,2.163c3.001,0.174,5.999,0.35,9.001,0.525
					c1.616,0.092,3.271,0.183,4.831-0.269c7-2.04,2.09-9.452-3.273-9.355C341.991,349.436,341.013,349.579,339.999,349.801z"/>
			</g>
			<g>
				<path fill="#E0B613" d="M367.174,262.675c2.17-4.113,8.49-3.398,12.256-0.672c4.139,2.997,7.012,7.684,7.805,12.729
					c0.632,4.02-0.01,8.128-0.826,12.114c-4.988,24.337-16.658,47.269-33.4,65.624l-0.05-0.128
					c-6.883,0.577-13.954-1.501-19.432-5.706l-0.204,0.25C348.134,319.296,367.174,262.675,367.174,262.675z"/>
			</g>
		</g>
		<g>
			<g>
				<path fill="#EFD0B8" d="M369.971,229.961c1.646,3.844,3.305,8.205,1.726,12.076c-0.546,1.333-1.44,2.493-2.389,3.581
					l-0.563,0.094c-3.233,3.655-7.558,6.333-12.268,7.599c-2.812,0.757-6.021,0.955-8.432-0.677
					c-1.292-0.874-2.216-2.182-3.092-3.472c-5.375-7.94-10.017-16.375-13.847-25.165l-0.01-0.512
					c-1.196-3.902,0.549-8.146,3.037-11.381c2.429-3.156,5.658-5.774,9.431-7.048c3.772-1.272,8.106-1.099,11.556,0.887
					c3.415,1.965,5.656,5.419,7.767,8.745c1.306,2.06,2.638,4.185,3.08,6.583l0.254,0.436c0.974-1.721,3.203-2.644,5.091-2.051
					c1.887,0.592,3.198,2.678,2.847,4.626c-0.395,2.202-2.496,3.64-4.485,4.662L369.971,229.961z"/>
			</g>
			<g>
				<path fill="#EFD0B8" d="M368.564,227.359c7.252,10.539,16.331,22.37,25.064,31.717c0,0,0.142,0.199,0.145,0.202
					c0.47,0.663-4.663,3.267-5.302,3.6c-5.494,2.863-11.193,3.466-16.469-0.164c-0.745-5.181-2.474-10.696-6.432-14.123
					L368.564,227.359z"/>
			</g>
			<g>
				<path fill="#2A3F59" d="M341.771,227.336c0.503,1.154,1.339,2.9,2.638,3.25c0.695,0.187,1.306-0.171,1.572-0.821
					c0.576-1.415-0.713-3.258-1.705-4.202C342.996,224.344,341.065,225.721,341.771,227.336L341.771,227.336z"/>
			</g>
			<g>
				<path fill="#2A3F59" d="M334.697,230.569c0.228,1.676,0.883,3.284,1.531,4.839c0.637,1.537,1.239,3.198,2.365,4.443
					c0.292,0.324,0.864,0.031,0.762-0.397c-0.36-1.51-1.206-2.88-1.812-4.308c-0.684-1.617-1.185-3.326-1.98-4.889
					C335.317,229.769,334.631,230.068,334.697,230.569L334.697,230.569z"/>
			</g>
			<g>
				<path fill="#2A3F59" d="M339.062,244.69c4.124,2.132,10.316-1.526,9.069-7.046c-0.085-0.374-0.584-0.459-0.622-0.11
					c-0.45,4.271-4.107,8.08-8.3,6.26C338.677,243.563,338.534,244.419,339.062,244.69L339.062,244.69z"/>
			</g>
			<circle fill="#EFD0B8" cx="355.929" cy="233.409" r="5.899"/>
			<g>
				<path fill="#EFD0B8" d="M366.575,223.229c1.681-0.655,4.728,0.27,4.948,2.339c0.04,0.39-0.444,0.642-0.743,0.392
					c-0.565-0.474-0.893-1.114-1.548-1.507c-0.779-0.467-1.605-0.565-2.496-0.529C366.338,223.94,366.184,223.381,366.575,223.229
					L366.575,223.229z"/>
			</g>
			<g>
				<path fill="#EFD0B8" d="M369.282,224.33c-0.373,0.837-0.435,1.52-0.418,2.418c0.012,0.58-0.776,0.644-0.888,0.083
					c-0.205-1.033,0.108-2.036,0.676-2.9C368.893,223.566,369.45,223.951,369.282,224.33L369.282,224.33z"/>
			</g>
			<g>
				<path fill="#493B98" d="M309.206,221.883l0.632,0.634c2.284,2.464,5.945,3.562,9.208,2.759l-0.34,1.027
					c-1.106,1.279-2.382,2.413-3.78,3.362c0.997,2.037,3.284,3.259,5.552,3.342c5.77,0.21,12.292-3.749,15.827-8.09
					c1.614-1.985,2.465-4.465,3.284-6.889l0.515,0.304c3.535,3.405,7.978,5.972,12.816,6.788c4.538,0.766,9.398-0.135,13.156-2.76
					c0.233-0.164,0.451-1.042,0.67-1.323c0.345-0.44,0.783-0.795,1.284-1.042c1.211-0.597,2.581-0.659,3.87-0.095
					c0.492,0.216,2.189,1.613,2.04,2.301c1.073-4.938-0.411-13.004-3.737-16.437c-1.392-1.435-3.291-2.629-5.269-2.355l-0.612-0.281
					c-2.306-4.884-8.553-6.328-13.952-6.37c-7.56-0.059-15.654,1.766-20.739,7.361c-3.299,3.632-4.973,8.446-7.862,12.411
					C318.877,220.493,313.763,223.704,309.206,221.883z"/>
			</g>
			<path fill="#E2E2E2" d="M365.571,248.59c0,0,4.824-2.506,5.325-7.562l0.995,20.08
				C371.892,261.108,370.236,252.271,365.571,248.59z"/>
			<g>
				<path fill="#CECECE" d="M366.381,222.423c-1.461-1.53-2.835-3.14-3.913-4.968c-0.992-1.68-1.561-3.539-2.479-5.246
					c-0.183-0.34-0.769-0.195-0.742,0.202c0.261,4.053,3.411,8.229,6.481,10.666C366.184,223.437,366.803,222.864,366.381,222.423
					L366.381,222.423z"/>
			</g>
			<g>
				<path fill="#CECECE" d="M365.889,221.831c-1.261-3.599-1.621-7.052-1.873-10.826c-0.028-0.43-0.705-0.584-0.8-0.108
					c-0.76,3.785,0.128,7.878,1.795,11.303C365.245,222.685,366.067,222.344,365.889,221.831L365.889,221.831z"/>
			</g>
			<g>
				<path fill="#CECECE" d="M366.64,221.695c0.017-2.57,0.427-5.037,0.719-7.58c0.06-0.511-0.69-0.54-0.845-0.115
					c-0.874,2.418-0.947,5.164-0.693,7.695C365.87,222.21,366.635,222.234,366.64,221.695L366.64,221.695z"/>
			</g>
			<g>
				<path fill="#CECECE" d="M340.548,217.797c-0.278-2.416-1.41-5.054-3.678-6.232c-0.439-0.228-0.872,0.314-0.53,0.684
					c1.572,1.699,2.893,3.317,3.291,5.672C339.719,218.435,340.609,218.321,340.548,217.797L340.548,217.797z"/>
			</g>
			<g>
				<path fill="#CECECE" d="M341.041,217.098c0.411-1.682,0.28-3.681-0.98-4.986c-0.277-0.288-0.679,0.076-0.524,0.405
					c0.688,1.466,1.194,2.738,0.808,4.389C340.236,217.359,340.933,217.553,341.041,217.098L341.041,217.098z"/>
			</g>
			<g>
				<path fill="#CECECE" d="M319.506,226.031c2.121-0.842,4.203-2.661,4.469-5.052c0.057-0.516-0.705-0.656-0.94-0.254
					c-1.057,1.819-1.994,3.302-4.003,4.18C318.399,225.182,318.855,226.288,319.506,226.031L319.506,226.031z"/>
			</g>
			<g>
				<path fill="#CECECE" d="M319.333,226.198c2.155,0.33,4.21-0.142,5.917-1.521c0.543-0.438-0.176-1.379-0.753-0.975
					c-1.51,1.06-3.163,1.542-5.005,1.307C318.822,224.924,318.658,226.096,319.333,226.198L319.333,226.198z"/>
			</g>
			<g>
				<path fill="#CECECE" d="M357.188,201.568c-5.195-5.072-15.334-3.361-19.992,1.664c-0.257,0.276,0.071,0.74,0.41,0.533
					c5.461-3.318,13.375-6.665,19.014-1.63C357.004,202.479,357.56,201.931,357.188,201.568L357.188,201.568z"/>
			</g>
		</g>
		<g>
			<path fill="#EDC310" d="M411.598,268.988c15.711,15.579,30.458,32.129,44.125,49.527l0.301,0.667
				c1.031,2.284-12.394,14.327-14.417,16.397c-6.591,6.748-13.45,11.342-22.404,14.326c-6.555,2.183-13.137,4.374-19.937,5.595
				l-28.523-96.94c6.639-0.798,9.975-4.547,12.979-10.52C383.721,248.041,403.202,260.667,411.598,268.988z"/>
		</g>
		<g>
			<path fill="#E2E2E2" d="M456.433,319.182l-0.302-0.667c-13.667-17.397-28.411-33.948-44.123-49.527
				c-8.396-8.322-27.877-20.947-27.877-20.947c-0.368,0.733-0.743,1.432-1.128,2.098c6.354,4.416,14.888,10.646,19.736,15.455
				c15.711,15.575,30.458,32.127,44.124,49.526l0.302,0.665c1.03,2.284-12.394,14.329-14.417,16.397
				c-6.591,6.747-13.45,11.342-22.404,14.326c-4.039,1.347-8.094,2.667-12.199,3.787l1.531,5.205
				c6.801-1.221,13.382-3.412,19.936-5.595c8.956-2.984,15.813-7.578,22.406-14.326
				C444.038,333.509,457.463,321.466,456.433,319.182z"/>
		</g>
		<g>
			<g>
				<path fill="#EFD0B8" d="M294.792,303.156c-3.636-0.134-7.282,0.092-10.872,0.669c-1.821,0.292-4.059,1.159-4.089,3.001
					c-0.021,1.147,0.888,2.08,1.79,2.785c4.257,3.317,9.973,4.685,15.27,3.659L294.792,303.156z"/>
			</g>
			<g>
				<path fill="#EDC310" d="M292.294,297.222c29.592-1.37,58.489-14.382,79.127-35.63c2.392-2.46,4.789-5.107,7.987-6.349
					c2.427-0.942,5.195-0.976,7.641-0.087l0.484-0.214c4.616,3.74,5.943,10.464,4.664,16.267c-1.282,5.801-4.732,10.867-8.349,15.58
					c-9.26,12.074-21.568,16.436-35.703,20.317c-16.884,4.64-34.298,7.342-51.794,8.025l-0.778-0.299
					C292.17,309.504,292.294,297.222,292.294,297.222z"/>
			</g>
			<g>
				<path fill="#CECECE" d="M378.594,293.036c5.701-2.272,11.048-5.841,14.747-10.811c0.238-0.317-0.261-0.662-0.531-0.41
					c-4.45,4.176-8.987,7.861-14.467,10.625C378.018,292.604,378.247,293.176,378.594,293.036L378.594,293.036z"/>
			</g>
			<g>
				<path fill="#CECECE" d="M381.961,289.968c4.943-2.787,9.83-7.76,11.005-13.51c0.076-0.383-0.463-0.663-0.665-0.28
					c-2.792,5.333-5.527,9.756-10.77,13.057C381.068,289.524,381.481,290.239,381.961,289.968L381.961,289.968z"/>
			</g>
			<g>
				<path fill="#CECECE" d="M401.144,354.004c1.918-10.193,2.369-20.968-0.242-31.085c-0.098-0.373-0.743-0.309-0.693,0.093
					c1.301,10.476,1.885,20.284,0.111,30.764C400.229,354.313,401.041,354.548,401.144,354.004L401.144,354.004z"/>
			</g>
			<g>
				<path fill="#CECECE" d="M402.31,354.054c2.117-3.671,3.837-7.65,4.599-11.836c0.071-0.39-0.486-0.556-0.599-0.166
					c-1.178,4.069-2.552,7.918-4.677,11.607C401.381,354.097,402.058,354.491,402.31,354.054L402.31,354.054z"/>
			</g>
			<g>
				<path fill="#CECECE" d="M400.165,353.128c-0.315-12.487-3.692-25.401-9.739-36.347c-0.207-0.375-0.881-0.114-0.71,0.299
					c4.91,11.94,7.996,23.202,9.563,36.048C399.346,353.679,400.182,353.714,400.165,353.128L400.165,353.128z"/>
			</g>
			<g>
				<path fill="#CECECE" d="M454.616,318.449c-6.556,1.327-11.882,1.339-18.366-0.342c-0.458-0.117-0.79,0.574-0.334,0.793
					c5.67,2.714,13.231,2.811,18.856-0.079C454.988,318.712,454.832,318.406,454.616,318.449L454.616,318.449z"/>
			</g>
			<g>
				<path fill="#CECECE" d="M454.571,319.417c-2.921,3.16-6.401,4.715-10.452,5.914c-0.504,0.149-0.438,1.007,0.128,0.955
					c4.303-0.401,8.206-3.019,10.922-6.271C455.511,319.605,454.946,319.013,454.571,319.417L454.571,319.417z"/>
			</g>
		</g>
		<g>
			<path fill="#CECECE" d="M435.623,340.722c-1.052,9.293,10.635,13.624,18.081,13.971c0.857,0.038,0.854-1.292,0-1.332
				c-7.07-0.328-17.28-4.122-17.131-12.639C436.585,340.098,435.69,340.131,435.623,340.722L435.623,340.722z"/>
		</g>
	</g>
</g>
</svg>
